Results
version=1
nRows=4
nColumns=155
inDegrees=yes
endheader
time	ground_pelvis/pelvis_tilt/value	ground_pelvis/pelvis_tilt/speed	ground_pelvis/pelvis_list/value	ground_pelvis/pelvis_list/speed	ground_pelvis/pelvis_rotation/value	ground_pelvis/pelvis_rotation/speed	ground_pelvis/pelvis_tx/value	ground_pelvis/pelvis_tx/speed	ground_pelvis/pelvis_ty/value	ground_pelvis/pelvis_ty/speed	ground_pelvis/pelvis_tz/value	ground_pelvis/pelvis_tz/speed	hip_r/hip_flexion_r/value	hip_r/hip_flexion_r/speed	hip_r/hip_adduction_r/value	hip_r/hip_adduction_r/speed	hip_r/hip_rotation_r/value	hip_r/hip_rotation_r/speed	knee_r/knee_angle_r/value	knee_r/knee_angle_r/speed	ankle_r/ankle_angle_r/value	ankle_r/ankle_angle_r/speed	subtalar_r/subtalar_angle_r/value	subtalar_r/subtalar_angle_r/speed	mtp_r/mtp_angle_r/value	mtp_r/mtp_angle_r/speed	hip_l/hip_flexion_l/value	hip_l/hip_flexion_l/speed	hip_l/hip_adduction_l/value	hip_l/hip_adduction_l/speed	hip_l/hip_rotation_l/value	hip_l/hip_rotation_l/speed	knee_l/knee_angle_l/value	knee_l/knee_angle_l/speed	ankle_l/ankle_angle_l/value	ankle_l/ankle_angle_l/speed	subtalar_l/subtalar_angle_l/value	subtalar_l/subtalar_angle_l/speed	mtp_l/mtp_angle_l/value	mtp_l/mtp_angle_l/speed	back/lumbar_extension/value	back/lumbar_extension/speed	back/lumbar_bending/value	back/lumbar_bending/speed	back/lumbar_rotation/value	back/lumbar_rotation/speed	glut_med1_r/activation	glut_med1_r/fiber_length	glut_med2_r/activation	glut_med2_r/fiber_length	glut_med3_r/activation	glut_med3_r/fiber_length	bifemlh_r/activation	bifemlh_r/fiber_length	bifemsh_r/activation	bifemsh_r/fiber_length	sar_r/activation	sar_r/fiber_length	add_mag2_r/activation	add_mag2_r/fiber_length	tfl_r/activation	tfl_r/fiber_length	pect_r/activation	pect_r/fiber_length	grac_r/activation	grac_r/fiber_length	glut_max1_r/activation	glut_max1_r/fiber_length	glut_max2_r/activation	glut_max2_r/fiber_length	glut_max3_r/activation	glut_max3_r/fiber_length	iliacus_r/activation	iliacus_r/fiber_length	psoas_r/activation	psoas_r/fiber_length	quad_fem_r/activation	quad_fem_r/fiber_length	gem_r/activation	gem_r/fiber_length	peri_r/activation	peri_r/fiber_length	rect_fem_r/activation	rect_fem_r/fiber_length	vas_int_r/activation	vas_int_r/fiber_length	med_gas_r/activation	med_gas_r/fiber_length	soleus_r/activation	soleus_r/fiber_length	tib_post_r/activation	tib_post_r/fiber_length	tib_ant_r/activation	tib_ant_r/fiber_length	glut_med1_l/activation	glut_med1_l/fiber_length	glut_med2_l/activation	glut_med2_l/fiber_length	glut_med3_l/activation	glut_med3_l/fiber_length	bifemlh_l/activation	bifemlh_l/fiber_length	bifemsh_l/activation	bifemsh_l/fiber_length	sar_l/activation	sar_l/fiber_length	add_mag2_l/activation	add_mag2_l/fiber_length	tfl_l/activation	tfl_l/fiber_length	pect_l/activation	pect_l/fiber_length	grac_l/activation	grac_l/fiber_length	glut_max1_l/activation	glut_max1_l/fiber_length	glut_max2_l/activation	glut_max2_l/fiber_length	glut_max3_l/activation	glut_max3_l/fiber_length	iliacus_l/activation	iliacus_l/fiber_length	psoas_l/activation	psoas_l/fiber_length	quad_fem_l/activation	quad_fem_l/fiber_length	gem_l/activation	gem_l/fiber_length	peri_l/activation	peri_l/fiber_length	rect_fem_l/activation	rect_fem_l/fiber_length	vas_int_l/activation	vas_int_l/fiber_length	med_gas_l/activation	med_gas_l/fiber_length	soleus_l/activation	soleus_l/fiber_length	tib_post_l/activation	tib_post_l/fiber_length	tib_ant_l/activation	tib_ant_l/fiber_length	ercspn_r/activation	ercspn_r/fiber_length	ercspn_l/activation	ercspn_l/fiber_length	intobl_r/activation	intobl_r/fiber_length	intobl_l/activation	intobl_l/fiber_length	extobl_r/activation	extobl_r/fiber_length	extobl_l/activation	extobl_l/fiber_length
      0.99783970897354645757	      4.92357647960422006861	      2.57832773867894982089	     -0.03528231334050076912	      0.75522004302651957186	      0.26990715394451236797	    -17.95857319076750613362	      0.59290214985341516130	     -0.12593203208553130357	      1.04527220582260782500	      0.02601779210606264964	      0.04807509043723069697	      0.07818188212374392598	     -2.55712948645733995079	    -89.55437418654341286128	      2.00807743730651511171	      4.43211201551093125772	     -3.76944528767101072475	     10.21561823120332057613	    -11.62444553591226004130	     50.14639940912494608938	      8.10834183672806041443	     11.70008548402775616637	      0.06120375193605724629	     -4.40686835733327253450	     -0.48452857437395135953	     14.01453280886987506904	     18.62195468840844014835	     55.01551338138076374662	     -3.24462756135011298753	      2.63438945732298090974	     -4.17529868974996265507	    -30.13476594865727875572	    -58.25969417371982217446	    225.88682939650442449420	      1.47278485038841133736	      4.33435032064893199788	     -0.00862182013970383930	      1.23024252411106216343	      0.51432356349916075189	     -3.47114375166135102901	    -16.35747125728879680651	    -10.66360835225155589967	      1.15655611155879811669	    -10.41434841937656585742	      1.15224054200921810498	     23.26232005464393992611	      0.46466009754739390214	      0.04713430196891162799	      0.35299854482847886628	      0.08134958201075916107	      0.30054359269986236081	      0.06113975086668755471	      0.05143081931976428017	      0.09511431057680125312	      0.09574464000986671053	      0.18384868990967412339	      0.05197125881908917777	      0.51949321960938832365	      0.01999999999999999695	      0.08039729299367751048	      0.08608428942525582495	      0.12317286901068377758	      0.01999999999999999695	      0.07874297692522302938	      0.01999999999999999695	      0.34732719025130004420	      0.09977461058767587987	      0.07729046971436123736	      0.07451951291702829661	      0.08482713613081270532	      0.02408570767610864263	      0.09124160107429986344	      0.03769946141255457045	      0.11516449967212132044	      0.05048187103235329126	      0.10717509380933464003	      0.02078643696566517124	      0.04463031800239998514	      0.01999999999999999695	      0.02463609651202514766	      0.08930480337367441290	      0.01997170664405075249	      0.03995773221000696596	      0.12410121145563866862	      0.05572541888694095696	      0.08584424979420979263	      0.40371244772710690452	      0.08851763551188959744	      0.10610168355258844941	      0.05002936247610414999	      0.17957657510130320411	      0.03335402136232158699	      0.08572266714385801123	      0.07309020046285465144	      0.05012149391439522927	      0.04979403631738577030	      0.08778102180488853157	      0.08737068485774755755	      0.14653370524948045039	      0.06796691182157753308	      0.02402589400286903390	      0.09324423481100825584	      0.07866590343627491433	      0.16131044529275098687	      0.11164303375616042857	      0.48793569958100441175	      0.02926208356751944586	      0.09497404090415542677	      0.10384377250737511500	      0.11323268054292191798	      0.04025377257099740924	      0.07324670889147717745	      0.02959229155289518423	      0.32971930504855029298	      0.01999999999999999695	      0.09328997333693196670	      0.01999999999999999695	      0.10515904782068337397	      0.01999999999999999695	      0.12370264269738996676	      0.23634943205357136775	      0.09942182096776541744	      0.25476516396874371306	      0.09135006882316051846	      0.04624111757360564040	      0.04840153353346722531	      0.03639379634463232871	      0.02490565601572136342	      0.07155096039963051990	      0.02167990315390343550	      0.26104972543570587051	      0.14409271207366239342	      0.01999999999999999695	      0.12268209403184265893	      0.01999999999999999695	      0.07050852586436598401	      0.01999999999999999695	      0.04660581289624883550	      0.01999999999999999695	      0.03397070801486146846	      0.08170666528035326615	      0.07763347850915595927	      0.11314558641401896433	      0.13759833630394649462	      0.21834116315020182797	      0.13949180318740311835	      0.01999999999999999695	      0.08773976969562694017	      0.10735251540010584681	      0.08988659389554100321	      0.01999999999999999695	      0.11731702992041552480	      0.02350397705898878489	      0.12140859291882584448
      0.99916900254592266872	      4.92697776256796426964	      2.53923682919371618283	     -0.03475462747823568344	      0.04581974831931310416	      0.24624831183711975990	    -17.63330789896480155221	      0.59273461434508323276	     -0.12613150253744281892	      1.04530543206275816637	      0.02397157624768114434	      0.04817859369689102278	      0.07753273854993324166	     -2.67605480795878758471	    -89.37789352207175852527	      2.01440213583899208061	      5.07351827130697330404	     -3.75613209607090769993	      9.80557203792039544510	    -11.55786444222557207695	     50.02255649130624703957	      8.12223471763701532211	      9.38206710170869939702	      0.05423231625595776456	     -5.94875796530403011531	     -0.46065800101981368986	     21.30452705525611634130	     18.69431330193797435868	     53.85213487320471159592	     -3.24205650542867118702	      1.24815006320058330402	     -4.21626288451623931763	    -31.49247933969685320221	    -57.95746808882441314381	    228.83049394088229178124	      1.47765423427787112587	      2.95133231384467986658	     -0.00721530852836584340	      0.84975035477067473177	      0.51085249630011375643	     -1.61998774216853913543	    -16.37161363050843476685	    -10.61417327693033207936	      1.14324185913756326549	     -9.62402947579750822626	      1.18298286745278979915	     22.98547817423203198928	      0.46159335748401625343	      0.04709607856504539197	      0.35052092910869003806	      0.08129959145824199040	      0.29783669870540913083	      0.06109605048907466168	      0.05083418327967677286	      0.09505718055360058705	      0.09626445502504377139	      0.18387365964241508820	      0.05163775253220036915	      0.51959773687248267393	      0.01999999999999999695	      0.08036437461467897669	      0.08476885930715748196	      0.12325998587668926532	      0.01999999999999999695	      0.07879078772203433612	      0.01999999999999999695	      0.34735889671793851452	      0.09815918501327372536	      0.07719910618066082308	      0.07346388656804613004	      0.08471331789834075920	      0.02401356529885719654	      0.09107965315902931402	      0.03776927510304178837	      0.11524631249660365062	      0.05076585121781344162	      0.10724970989990466330	      0.02077267658786303636	      0.04465399327296983023	      0.01999999999999999695	      0.02464732608599544059	      0.08913103186097964814	      0.01995942097692030709	      0.03958997274574092839	      0.12414553817111419198	      0.05503983643868368830	      0.08579826018966014989	      0.40500787152699502247	      0.08854727393554025217	      0.10844962653465001212	      0.05002821423489881708	      0.18079011000300820866	      0.03334431307399292332	      0.08548104800442318796	      0.07306839736928513740	      0.04968249698883645676	      0.04984457318637620232	      0.08831282462118553167	      0.08741118467682797155	      0.14770590120466703388	      0.06799435949363355491	      0.02395481945700566814	      0.09347339272750075645	      0.07893670779174501162	      0.16145107940655081813	      0.11186448192112562194	      0.48792278540619427041	      0.02909621448833833723	      0.09501104923111723666	      0.10284006320254623912	      0.11319171545255186928	      0.03988026747426861446	      0.07321573277064555296	      0.02942035534298854255	      0.32992722239064409262	      0.01999999999999999695	      0.09334773339982463392	      0.01999999999999999695	      0.10522195531482320119	      0.01999999999999999695	      0.12378416050935113490	      0.23499921458210509817	      0.09936835120393930354	      0.25351700402735083406	      0.09129452484120141598	      0.04574958796125350169	      0.04837762458581990055	      0.03638074172124878408	      0.02488535730209304880	      0.07056317969792549882	      0.02169640449451975747	      0.26289152129766746313	      0.14380586332368294755	      0.01999999999999999695	      0.12247449195740615913	      0.01999999999999999695	      0.07061126392271957486	      0.01999999999999999695	      0.04661600691589577738	      0.01999999999999999695	      0.03397515367787039275	      0.08044503240192206472	      0.07763404614531445314	      0.11392610390380211727	      0.13760970052011697873	      0.21696008285710913222	      0.13949811601398529048	      0.01999999999999999695	      0.08777626407792661622	      0.10604982134733918764	      0.08982748935802926937	      0.01999999999999999695	      0.11728939829949272533	      0.02344220537143765215	      0.12139890062518073066
      1.00000000000000022204	      4.92907846102539615174	      2.51719110312556049180	     -0.03489208220970741597	     -0.37315889033771854066	      0.23168463107341397134	    -17.41577079367171876356	      0.59262975173918153171	     -0.12624453147990510882	      1.04532481983629765843	      0.02268983430902914503	      0.04824284031342600254	      0.07708703627595965557	     -2.75028497227785662105	    -89.27684970626809501937	      2.01877234057759125108	      5.43952905402394826240	     -3.74810134077006607001	      9.51808768389918213870	    -11.51633548674486284824	     49.92426749973179056497	      8.12964715002981641589	      8.54248256662689975371	      0.04905023264781158132	     -6.45927911862109827013	     -0.44178482944783026287	     23.83687468643122997491	     18.73876122040609004671	     53.12202510945535749443	     -3.24136230605297415153	      0.42926645091980553115	     -4.24277855041116236379	    -32.32102081213007238603	    -57.76654538312016029522	    230.67218640945992547131	      1.47970834850276999894	      1.98195243072927729244	     -0.00664445203956633753	      0.51345567444570650029	      0.51011225621090994231	     -0.12927003211680007655	    -16.38042150911756422715	    -10.58462108606920359932	      1.13544175317137674419	     -9.15199817796435333150	      1.20200476093399921673	     22.79257350730146569617	      0.45974278803191248599	      0.04707266318210177186	      0.34901881975043813622	      0.08126867982905253140	      0.29619295449632926376	      0.06106892516806254612	      0.05046742452819977937	      0.09502127869537756177	      0.09653870673647166334	      0.18388945952418134233	      0.05143263532303991165	      0.51966296390297406216	      0.01999999999999999695	      0.08034343377493859129	      0.08396240006521528410	      0.12331442407932585725	      0.01999999999999999695	      0.07882037390696235157	      0.01999999999999999695	      0.34737833860185085566	      0.09716982016455878723	      0.07714212665234580768	      0.07281612204952053746	      0.08464220552846427048	      0.02396912176932468677	      0.09097806616466340424	      0.03780516377483512241	      0.11529745498320871644	      0.05091274721112603457	      0.10729697535527372987	      0.02076419723205281953	      0.04466832850845115638	      0.01999999999999999695	      0.02465411267589428732	      0.08902427981202684637	      0.01995170882409640079	      0.03936370014120978145	      0.12417341264972221737	      0.05461854548096432144	      0.08576957728776757328	      0.40574115024408474728	      0.08856582966221614173	      0.10969018834877261592	      0.05002719626646319473	      0.18144786710857321865	      0.03333829486444305629	      0.08533261342865434973	      0.07305555794324450347	      0.04941253932077956795	      0.04987586860087489526	      0.08859249292872167780	      0.08743583313440186910	      0.14833505758064227664	      0.06801063736879688071	      0.02391103355913574285	      0.09361715417479613000	      0.07907862848113299259	      0.16154028529229613742	      0.11198207964492246091	      0.48791540552470907821	      0.02899407255233928116	      0.09503493214640787445	      0.10222474365487593806	      0.11316554549521068429	      0.03965046515955410189	      0.07319730734689941509	      0.02931448006677270235	      0.33005915953271897090	      0.01999999999999999695	      0.09338264363062345752	      0.01999999999999999695	      0.10526010238402802588	      0.01999999999999999695	      0.12383442695604950090	      0.23417594356703932967	      0.09933572372653354243	      0.25275637951751178667	      0.09126058928775160339	      0.04544731432228614476	      0.04836231966086716738	      0.03637270232891371552	      0.02487197180451024281	      0.06995690293679698857	      0.02170609235543988214	      0.26390885004741554409	      0.14362579626580063152	      0.01999999999999999695	      0.12234307169556578321	      0.01999999999999999695	      0.07067558961578110366	      0.01999999999999999695	      0.04662209220049239045	      0.01999999999999999695	      0.03397784029724056076	      0.07967135874715038091	      0.07763470548106127245	      0.11434049510256896753	      0.13761661132741739855	      0.21611746850911500717	      0.13950236949254635199	      0.01999999999999999695	      0.08779808947410917830	      0.10525174215274417377	      0.08979156661466228262	      0.01999999999999999695	      0.11727170305640013948	      0.02340414896917251270	      0.12139318314155357614
      1.00012223798540977882	      4.92938597960154734068	      2.51430500478258345254	     -0.03494135645744316648	     -0.43295305762706520758	      0.22955776968461985565	    -17.38296062103926686859	      0.59261431889618665370	     -0.12626029247269060507	      1.04532758187631413804	      0.02250137518714874843	      0.04825225911587919386	      0.07701892849952388098	     -2.76119713527010768317	    -89.26282152901497113362	      2.01944039765035210365	      5.49077940376668394151	     -3.74694057385121759296	      9.47382044354775310069	    -11.51023381502911924201	     49.90830750318857411685	      8.13068635172180265158	      8.46231798579281146999	      0.04825799201731285210	     -6.50162871727601299199	     -0.43885670536239224093	     24.06552538871476087934	     18.74524815804583255385	     53.01412191558792841306	     -3.24131699636442682788	      0.31220272506912116750	     -4.24673677310887232039	    -32.44154963821885218067	    -57.73833191589673674571	    230.94321088432167243809	      1.47994165142905353960	      1.83532451309171817933	     -0.00658498433689940106	      0.45955222057778144507	      0.51011062383021943401	      0.10227218032746181187	    -16.38171510367967087518	    -10.58058306783281921071	      1.13432717592482834590	     -9.08428867768997250209	      1.20478906781594807818	     22.76294461051096007509	      0.45923683721588220985	      0.04706925190510195811	      0.34865434560704644529	      0.08126415684488275115	      0.29590871683050051777	      0.06106494726483585600	      0.05041387362905433434	      0.09501598550685876055	      0.09682904097255277953	      0.18389177745600082670	      0.05140139286429441096	      0.51967255158820135907	      0.01999999999999999695	      0.08034033035000538725	      0.08384413500126114416	      0.12332243044213757333	      0.01999999999999999695	      0.07882470751937455111	      0.01999999999999999695	      0.34738117437252674646	      0.09702887911979560243	      0.07713375293691172863	      0.07272161371042054623	      0.08463174698232812931	      0.02396262633308865464	      0.09096310064523291383	      0.03782380055926551354	      0.11530496795106902341	      0.05094401473947338804	      0.10730395819243690458	      0.02076295782879335888	      0.04467040710217520805	      0.01999999999999999695	      0.02465509558829175746	      0.08897868554698719346	      0.01995057280111236370	      0.03933064861150300379	      0.12417752211111075800	      0.05455704144501645481	      0.08576536215348294634	      0.40557827904762444593	      0.08856856475452627719	      0.10956699258726190771	      0.05002703558119037802	      0.18114600025698265884	      0.03333741729500622197	      0.08522461435880976377	      0.07305372473568218228	      0.04936300451519987087	      0.04988045723188288399	      0.08868999153023392201	      0.08743940856676862827	      0.14880680883628744082	      0.06801295887268669904	      0.02390463422262833690	      0.09363833201641791337	      0.07908170036194302199	      0.16155349678255523371	      0.11208864178182754989	      0.48791434758350565870	      0.02897914716960659637	      0.09503849225515903498	      0.10296665218289621779	      0.11316161915517949921	      0.03961689839268128094	      0.07319465685156116563	      0.02929900933170824506	      0.33007869129718470091	      0.01999999999999999695	      0.09338770233149770728	      0.01999999999999999695	      0.10526563809417903428	      0.01999999999999999695	      0.12384177518576300336	      0.23401130439824585627	      0.09933097668417349702	      0.25261412699745461330	      0.09125564852268872040	      0.04540606251178433417	      0.04836004444950667974	      0.03665558513112263800	      0.02486994859399662555	      0.06987825105514890167	      0.02170747600450864331	      0.26422417355504052017	      0.14359925422813871188	      0.01999999999999999695	      0.12232363342426964825	      0.01999999999999999695	      0.07068505318846085572	      0.01999999999999999695	      0.04662296784864201210	      0.01999999999999999695	      0.03397822953967114673	      0.07955851226406973620	      0.07763482330649004726	      0.11451105832972870158	      0.13761761094447327869	      0.21599384077038022434	      0.13950301452365237997	      0.01999999999999999695	      0.08780123653775481762	      0.10510307043828337470	      0.08978635050967266606	      0.01999999999999999695	      0.11726907337112092711	      0.02339858690078603157	      0.12139236462730243482
